<svg width="100" height="100" viewBox="0 0 151 151" fill="none" xmlns="http://www.w3.org/2000/svg">
<g filter="url(#filter0_i_14:14)">
<path fill-rule="evenodd" clip-rule="evenodd" d="M75.3781 150.235C116.799 150.235 150.378 116.656 150.378 75.2347C150.378 33.8134 116.799 0.234741 75.3781 0.234741C33.9568 0.234741 0.378052 33.8134 0.378052 75.2347C0.378052 116.656 33.9568 150.235 75.3781 150.235ZM55.8781 52.7347C54.2212 52.7347 52.8781 54.0778 52.8781 55.7347V94.7347C52.8781 96.3916 54.2212 97.7347 55.8781 97.7347H94.8781C96.535 97.7347 97.8781 96.3916 97.8781 94.7347V55.7347C97.8781 54.0778 96.535 52.7347 94.8781 52.7347H55.8781Z" fill="#A7B325"/>
<path d="M37.7467 29.0348C37.9906 29.0348 38.3188 29.1566 38.7313 29.4005C39.1813 29.7005 39.4063 29.963 39.4063 30.188C39.4063 30.2441 39.3031 30.3755 39.0967 30.5816C38.8717 30.938 38.6563 31.2941 38.4499 31.6505C37.7938 32.6255 37.2499 33.2723 36.8188 33.5912C36.5188 33.8534 36.3217 33.9848 36.2281 33.9848C36.0967 33.9662 36.0313 33.9098 36.0313 33.8162C36.5374 32.8598 36.9217 32.0534 37.1845 31.3973C37.3531 30.8723 37.4374 30.4598 37.4374 30.1598C37.4374 30.0284 37.3999 29.8034 37.3249 29.4848C37.3624 29.1848 37.5031 29.0348 37.7467 29.0348ZM35.2156 33.1973C35.3281 33.1973 35.5906 33.263 36.0031 33.3941C36.3595 33.5255 36.5467 33.6848 36.5656 33.8723L36.6499 40.2005C36.6499 40.4066 36.5749 40.6598 36.4249 40.9598C36.3499 41.1848 36.2374 41.2973 36.0874 41.2973C35.9749 41.2973 35.8345 41.1284 35.6656 40.7912C35.5156 40.5284 35.4406 40.3316 35.4406 40.2005C35.4406 40.1255 35.4595 39.9848 35.4967 39.7784C35.5156 39.4412 35.5249 39.1223 35.5249 38.8223C35.5249 37.7534 35.4781 36.6755 35.3845 35.588C35.3281 35.0066 35.2156 34.4441 35.0467 33.9005C34.9906 33.7691 34.9624 33.6473 34.9624 33.5348C34.9624 33.3098 35.0467 33.1973 35.2156 33.1973ZM39.7717 32.6348C39.9217 32.6348 40.3156 32.7941 40.9531 33.113C41.3656 33.338 41.5717 33.5348 41.5717 33.7034C41.5717 33.8162 41.5063 34.0412 41.3749 34.3784C41.2624 34.5284 41.2063 35.0912 41.2063 36.0662C41.2063 37.0034 41.2156 37.7816 41.2345 38.4005C41.2531 38.7941 41.2624 39.1412 41.2624 39.4412C41.2624 39.9098 41.1781 40.3223 41.0095 40.6784C40.7845 41.0912 40.5781 41.2973 40.3906 41.2973C40.2967 41.2973 40.1563 41.1755 39.9688 40.9316C39.7249 40.5566 39.6031 40.2191 39.6031 39.9191C39.6031 39.7691 39.6217 39.563 39.6595 39.3005C39.6967 39.0005 39.7156 38.7191 39.7156 38.4566C39.7156 35.663 39.6217 34.1162 39.4345 33.8162C39.3217 33.7223 39.1249 33.6755 38.8438 33.6755C38.5624 33.6755 38.1595 33.7505 37.6345 33.9005C37.1467 34.0505 36.8095 34.1255 36.6217 34.1255C36.3217 34.1255 36.0781 34.0598 35.8906 33.9284C35.7406 33.8534 35.6656 33.7598 35.6656 33.6473C35.6656 33.5723 35.7406 33.5348 35.8906 33.5348C36.8281 33.4034 37.8874 33.1691 39.0688 32.8316C39.4813 32.7005 39.7156 32.6348 39.7717 32.6348ZM38.8717 36.1505C39.0781 36.1505 39.3124 36.1784 39.5749 36.2348C39.7438 36.2723 39.8281 36.3848 39.8281 36.5723C39.8281 36.7223 39.6688 36.9005 39.3499 37.1066C38.6188 37.2755 37.9531 37.3973 37.3531 37.4723C37.0717 37.5098 36.8656 37.5284 36.7345 37.5284C36.2467 37.4723 36.0031 37.3412 36.0031 37.1348C36.0217 37.0784 36.1345 36.9941 36.3406 36.8816C37.2967 36.6005 37.9999 36.3848 38.4499 36.2348C38.5624 36.1784 38.7031 36.1505 38.8717 36.1505ZM38.9845 39.5816C39.2095 39.5816 39.5467 39.6848 39.9967 39.8912C40.3345 40.1348 40.5031 40.3316 40.5031 40.4816C40.5031 40.5566 40.4563 40.5941 40.3624 40.5941C39.9499 40.5941 39.5749 40.613 39.2374 40.6505C38.2063 40.7441 37.6906 40.7912 37.6906 40.7912C37.4095 40.8284 37.1938 40.8473 37.0438 40.8473C36.6499 40.8473 36.3781 40.7723 36.2281 40.6223C36.0781 40.4723 36.0031 40.3412 36.0031 40.2284C36.0031 40.0412 36.1156 39.9473 36.3406 39.9473C37.0531 39.8912 37.7095 39.7973 38.3095 39.6662C38.6467 39.6098 38.8717 39.5816 38.9845 39.5816ZM31.9249 30.8348C32.0749 30.8348 32.3845 30.9941 32.8531 31.313C33.2281 31.6505 33.4156 31.9412 33.4156 32.1848C33.4156 32.3348 33.2749 32.588 32.9938 32.9441C32.4499 33.6191 31.6345 34.7348 30.5467 36.2912C30.4156 36.4973 30.3499 36.638 30.3499 36.713C30.3499 36.8441 30.4345 36.9098 30.6031 36.9098C30.7156 36.9098 31.0717 36.863 31.6717 36.7691C32.3656 36.638 32.8438 36.5723 33.1063 36.5723C33.3874 36.5723 33.5281 36.6473 33.5281 36.7973C33.5281 36.9662 33.3595 37.1066 33.0217 37.2191C31.6156 37.613 30.9124 37.8191 30.9124 37.838C30.4813 37.9505 30.1156 38.0912 29.8156 38.2598C29.5906 38.4098 29.4031 38.4848 29.2531 38.4848C29.0467 38.4848 28.8595 38.3066 28.6906 37.9505C28.4656 37.613 28.3531 37.3316 28.3531 37.1066C28.3531 36.9566 28.4749 36.7973 28.7188 36.6284C29.2063 36.2912 29.8156 35.4755 30.5467 34.1816C31.0906 33.0941 31.4281 32.1473 31.5595 31.3412C31.5967 31.0034 31.7188 30.8348 31.9249 30.8348ZM33.5281 34.6598C33.7156 34.6598 33.9499 34.8473 34.2313 35.2223C34.4938 35.5598 34.6438 35.8412 34.6813 36.0662C34.6813 36.2912 34.5595 36.5066 34.3156 36.713C33.7156 37.388 33.1999 38.0066 32.7688 38.5691C31.5124 40.0691 30.8845 40.8566 30.8845 40.9316C30.8845 41.0066 30.9499 41.0441 31.0813 41.0441C31.1374 41.0441 31.9063 40.8662 33.3874 40.5098C33.6874 40.4348 33.9313 40.3973 34.1188 40.3973C34.3249 40.3973 34.4281 40.4723 34.4281 40.6223C34.4281 40.8098 34.2031 40.9598 33.7531 41.0723C31.8967 41.7284 30.7345 42.2348 30.2656 42.5912C30.1345 42.7034 30.0313 42.7598 29.9563 42.7598C29.7499 42.7598 29.5345 42.6473 29.3095 42.4223C28.9717 42.0473 28.8031 41.7473 28.8031 41.5223C28.8031 41.3723 28.8874 41.2598 29.0563 41.1848C29.3749 41.0348 29.7967 40.5755 30.3217 39.8066C30.3595 39.8066 31.0156 38.9066 32.2906 37.1066C32.7217 36.5066 33.0217 35.8223 33.1906 35.0534C33.2467 34.7912 33.3595 34.6598 33.5281 34.6598ZM32.7406 39.0473C32.9467 39.0473 33.1624 39.1034 33.3874 39.2162C33.9499 39.4223 34.3717 39.6566 34.6531 39.9191C34.8967 40.2191 35.0188 40.6223 35.0188 41.1284C35.0188 41.6162 34.8217 41.8598 34.4281 41.8598C34.2781 41.8598 34.1188 41.7662 33.9499 41.5784C33.6499 41.2412 33.2188 40.538 32.6563 39.4691C32.5813 39.3566 32.5438 39.2723 32.5438 39.2162C32.5813 39.1034 32.6467 39.0473 32.7406 39.0473ZM45.0031 29.8223C45.1531 29.8223 45.4345 29.963 45.8467 30.2441C46.2031 30.563 46.3813 30.8348 46.3813 31.0598C46.3813 31.2098 46.2595 31.463 46.0156 31.8191C45.5281 32.513 44.8063 33.638 43.8499 35.1941C43.7374 35.4005 43.6813 35.5412 43.6813 35.6162C43.6813 35.7473 43.7563 35.813 43.9063 35.813C43.9999 35.813 44.2906 35.813 44.7781 35.813C45.3595 35.7941 45.7531 35.7848 45.9595 35.7848C46.2217 35.7848 46.3531 35.8598 46.3531 36.0098C46.3531 36.1412 46.2031 36.2441 45.9031 36.3191C44.7031 36.6005 44.1031 36.7505 44.1031 36.7691C43.7467 36.8441 43.4374 36.9473 43.1749 37.0784C42.9874 37.1912 42.8281 37.2473 42.6967 37.2473C42.5095 37.2473 42.3313 37.0784 42.1624 36.7412C41.9563 36.4412 41.8531 36.188 41.8531 35.9816C41.8531 35.8316 41.9563 35.6816 42.1624 35.5316C42.5938 35.1941 43.1374 34.388 43.7938 33.113C44.2813 32.0441 44.5813 31.1162 44.6938 30.3284C44.7124 29.9912 44.8156 29.8223 45.0031 29.8223ZM46.9156 33.3098C47.1031 33.3098 47.3374 33.4973 47.6188 33.8723C47.8813 34.2098 48.0313 34.4912 48.0688 34.7162C48.0688 34.9598 47.9467 35.1848 47.7031 35.3912C47.0656 36.0662 46.5124 36.6941 46.0438 37.2755C44.7124 38.813 44.0467 39.6191 44.0467 39.6941C44.0467 39.7691 44.1124 39.8066 44.2438 39.8066C44.2999 39.8066 45.1249 39.6848 46.7188 39.4412C47.0374 39.4034 47.2999 39.3848 47.5063 39.3848C47.7124 39.3848 47.8156 39.4598 47.8156 39.6098C47.8156 39.7784 47.5813 39.9098 47.1124 40.0034C45.1624 40.6034 43.9345 41.0534 43.4281 41.3534C43.2967 41.4662 43.1938 41.5223 43.1188 41.5223C42.9124 41.5223 42.6967 41.4098 42.4717 41.1848C42.1345 40.8098 41.9656 40.5098 41.9656 40.2848C41.9656 40.1348 42.0595 40.0223 42.2467 39.9473C42.5845 39.7973 43.0249 39.3284 43.5688 38.5412C43.5874 38.5412 44.2717 37.6223 45.6217 35.7848C46.0717 35.1848 46.3906 34.4912 46.5781 33.7034C46.6156 33.4412 46.7281 33.3098 46.9156 33.3098ZM46.1281 38.1473C46.3531 38.1473 46.6063 38.2034 46.8874 38.3162C47.5249 38.5412 48.0124 38.7848 48.3499 39.0473C48.6313 39.3473 48.7717 39.7598 48.7717 40.2848C48.7717 40.8848 48.5281 41.1848 48.0406 41.1848C47.8717 41.1848 47.6938 41.0816 47.5063 40.8755C47.1688 40.538 46.6717 39.788 46.0156 38.6255C45.9406 38.513 45.9031 38.4284 45.9031 38.3723C45.9406 38.2223 46.0156 38.1473 46.1281 38.1473ZM47.9845 42.7034C48.1156 42.7034 48.6031 42.863 49.4467 43.1816C50.1595 43.5566 50.5156 43.9034 50.5156 44.2223C50.5156 44.5034 50.0188 44.6441 49.0249 44.6441C47.5438 44.6066 45.9406 44.588 44.2156 44.588C42.4345 44.588 40.0999 44.7005 37.2124 44.9255C35.1313 45.038 32.9188 45.3473 30.5749 45.8534C29.8999 46.0223 29.4874 46.1066 29.3374 46.1066C29.0188 46.1066 28.5406 45.9662 27.9031 45.6848C27.2281 45.4034 26.8906 45.1691 26.8906 44.9816C26.8906 44.7566 27.1063 44.6255 27.5374 44.588C30.1438 44.5691 32.0563 44.4473 33.2749 44.2223C35.5813 43.9412 38.1124 43.7348 40.8688 43.6034C43.4749 43.3784 45.4813 43.1255 46.8874 42.8441C47.4688 42.7505 47.8345 42.7034 47.9845 42.7034ZM37.2124 41.4098C37.5499 41.4098 37.9624 41.4941 38.4499 41.663C38.9563 41.9066 39.2095 42.1784 39.2095 42.4784C39.2095 42.6284 39.1531 42.9566 39.0406 43.463C38.8906 44.1005 38.8156 44.7848 38.8156 45.5162C38.8156 45.5162 38.8156 47.7098 38.8156 52.0973C38.8156 52.6598 38.7217 53.1098 38.5345 53.4473C38.3467 53.8223 38.1217 54.0098 37.8595 54.0098C37.6531 54.0098 37.4467 53.7755 37.2406 53.3066C37.0906 52.913 37.0156 52.5848 37.0156 52.3223C37.0156 51.6662 37.0906 50.9348 37.2406 50.1284C37.3345 49.0598 37.3813 47.4191 37.3813 45.2066C37.3813 43.8191 37.3063 42.8816 37.1563 42.3941C36.9874 41.9816 36.8938 41.7755 36.8749 41.7755C36.8749 41.5316 36.9874 41.4098 37.2124 41.4098ZM32.5156 46.4723C32.9095 46.4723 33.2749 46.613 33.6124 46.8941C33.9688 47.1755 34.1467 47.4566 34.1467 47.738C34.1467 47.8316 34.0624 47.9255 33.8938 48.0191C33.7438 48.1691 33.6217 48.3191 33.5281 48.4691C33.1906 48.8255 32.8249 49.2098 32.4313 49.6223C31.8499 50.1473 31.2406 50.6066 30.6031 51.0005C30.0217 51.3191 29.4595 51.5723 28.9156 51.7598C28.4095 51.9098 28.1095 51.9848 28.0156 51.9848C27.8095 51.9848 27.7063 51.9473 27.7063 51.8723C28.3624 51.3848 28.8595 50.9723 29.1967 50.6348C29.9467 49.9598 30.5938 49.2941 31.1374 48.638C31.5874 48.0755 31.8874 47.6255 32.0374 47.288C32.1688 47.1005 32.2345 46.913 32.2345 46.7255C32.2345 46.5566 32.3281 46.4723 32.5156 46.4723ZM41.9656 46.3598C42.1345 46.3598 42.4438 46.4162 42.8938 46.5284C43.7938 46.8473 44.6656 47.2223 45.5095 47.6534C46.6156 48.3098 47.3467 48.9005 47.7031 49.4255C47.9656 49.8941 48.0967 50.4191 48.0967 51.0005C48.0967 51.2066 48.0499 51.4412 47.9563 51.7034C47.8249 51.8912 47.6656 51.9848 47.4781 51.9848C47.3281 51.9848 47.0938 51.8723 46.7749 51.6473C46.2499 51.3473 45.6031 50.7005 44.8345 49.7066C43.7845 48.488 42.9967 47.663 42.4717 47.2316C42.0595 46.913 41.8531 46.6784 41.8531 46.5284C41.8531 46.4162 41.8906 46.3598 41.9656 46.3598Z" fill="white"/>
<path d="M22.1587 92.7472C22.3837 92.7472 22.6858 92.902 23.0656 93.2113C23.4031 93.4504 23.5717 93.6472 23.5717 93.802C23.5717 94.0129 23.4382 94.1464 23.1712 94.2028C22.8337 94.3153 22.51 94.4557 22.2007 94.6246C21.1741 95.0464 20.3233 95.3488 19.6483 95.5315C18.9172 95.7004 18.3688 95.7847 18.0031 95.7847C17.5108 95.7847 17.2648 95.7424 17.2648 95.6581C17.2648 95.5597 17.3422 95.4895 17.4967 95.4472C18.5095 95.1799 19.5289 94.723 20.5555 94.0762C21.0616 93.7948 21.5047 93.4291 21.8845 92.9791C21.9967 92.8246 22.0882 92.7472 22.1587 92.7472ZM24.3313 96.1645C24.4156 96.1645 24.6616 96.2416 25.0696 96.3964C25.5898 96.7198 25.8499 96.9661 25.8499 97.1347C25.8358 97.3033 25.5967 97.3948 25.1329 97.4089C23.7547 97.4653 22.1725 97.627 20.3866 97.894C19.3882 98.0488 18.0595 98.3371 16.3999 98.7589C16.0765 98.8573 15.8797 98.9065 15.8095 98.9065C15.4858 98.9065 15.1696 98.8222 14.86 98.6533C14.4805 98.4988 14.2906 98.3581 14.2906 98.2315C14.2906 98.1613 14.4313 98.098 14.7124 98.0416C18.0454 97.4791 20.7805 96.952 22.918 96.4597C23.6632 96.2629 24.1345 96.1645 24.3313 96.1645ZM16.9063 98.9911C17.1733 98.9911 17.4967 99.0682 17.8765 99.223C18.0595 99.3214 18.1507 99.427 18.1507 99.5395C18.1507 99.9613 18.1648 100.271 18.193 100.467C18.4321 102.071 18.5515 102.935 18.5515 103.062C18.4954 103.371 18.3967 103.533 18.2563 103.547C18.0595 103.533 17.9047 103.287 17.7922 102.809C17.3281 101.135 16.9975 100.137 16.8007 99.8137C16.66 99.5605 16.5898 99.3847 16.5898 99.2863C16.5898 99.0895 16.6954 98.9911 16.9063 98.9911ZM19.543 100.425C19.6414 100.425 19.6906 100.481 19.6906 100.594C19.6906 100.622 19.6483 100.657 19.564 100.7C19.1983 100.91 18.643 101.192 17.8975 101.543C17.5039 101.74 17.0329 101.993 16.4845 102.303C16.414 102.359 16.3507 102.387 16.2946 102.387C16.0555 102.387 15.7531 102.239 15.3874 101.944C15.1063 101.691 14.9656 101.487 14.9656 101.332C14.9656 101.318 15.0007 101.304 15.0712 101.29C15.2821 101.29 15.4789 101.269 15.6616 101.227C16.435 101.1 17.5531 100.868 19.0156 100.531C19.3108 100.46 19.4866 100.425 19.543 100.425ZM23.5507 97.894C23.7337 97.894 23.9656 97.9783 24.2467 98.1472C24.5563 98.3581 24.7108 98.5411 24.7108 98.6956C24.7108 98.7661 24.6547 98.8996 24.5422 99.0964C24.4156 99.4621 24.3031 99.8347 24.2047 100.214C23.839 101.213 23.5366 101.881 23.2975 102.218C23.143 102.485 23.0374 102.619 22.9813 102.619C22.8967 102.605 22.8547 102.563 22.8547 102.492C23.0374 101.494 23.1781 100.643 23.2765 99.9403C23.3329 99.3916 23.3608 98.9629 23.3608 98.6533C23.3608 98.5549 23.3329 98.4004 23.2765 98.1895C23.3047 97.9924 23.3962 97.894 23.5507 97.894ZM25.0483 99.3283C25.1047 99.3283 25.2733 99.3706 25.5547 99.4549C25.864 99.6097 26.0188 99.7432 26.0188 99.8557C26.0188 100.025 25.8079 100.165 25.3858 100.278C24.7954 100.376 24.1906 100.481 23.5717 100.594C23.2624 100.65 22.9672 100.678 22.6858 100.678C22.4467 100.678 22.1938 100.65 21.9265 100.594C21.6733 100.552 21.5467 100.496 21.5467 100.425C21.5467 100.341 21.7015 100.264 22.0108 100.193C23.3467 99.8278 24.1555 99.5956 24.4366 99.4972C24.8023 99.3847 25.0063 99.3283 25.0483 99.3283ZM23.3608 102.893C23.4313 102.893 23.6563 102.964 24.0358 103.104C24.514 103.4 24.7531 103.625 24.7531 103.779C24.739 103.934 24.514 104.018 24.0781 104.032C23.1217 104.075 22.0321 104.201 20.8087 104.412C20.1055 104.539 19.1845 104.764 18.0454 105.087C17.8345 105.171 17.7007 105.214 17.6446 105.214C17.3491 105.214 17.0539 105.136 16.7587 104.981C16.4071 104.841 16.2313 104.707 16.2313 104.581C16.2313 104.525 16.3648 104.468 16.6321 104.412C18.9664 103.962 20.8789 103.54 22.3696 103.146C22.8898 102.978 23.2204 102.893 23.3608 102.893ZM19.9858 94.7722C20.3233 94.7722 20.7313 94.8988 21.2095 95.152C21.589 95.3065 21.7789 95.5315 21.7789 95.827C21.7789 95.869 21.7087 96.0307 21.568 96.3121C21.5116 96.4948 21.4132 97.3174 21.2725 98.7799L21.2938 106.838H20.239L20.0704 98.548C20.0704 97.9012 20.0212 97.198 19.9225 96.4387C19.9087 96.073 19.8313 95.7778 19.6906 95.5528C19.5781 95.3698 19.5217 95.2504 19.5217 95.194C19.5217 94.9129 19.6765 94.7722 19.9858 94.7722ZM15.8095 107.006C15.9079 107.006 16.0696 107.028 16.2946 107.07C16.6039 107.112 16.8007 107.133 16.885 107.133C17.1241 107.133 17.5672 107.091 18.214 107.006C21.0688 106.402 23.0656 105.924 24.2047 105.572C24.4999 105.488 24.7108 105.446 24.8374 105.446C25.2313 105.446 25.4281 105.544 25.4281 105.741C25.4281 105.938 25.1962 106.1 24.7321 106.226C21.4414 107.196 19.7962 107.696 19.7962 107.724C19.1071 107.935 18.4882 108.16 17.9398 108.399C17.6023 108.596 17.3491 108.694 17.1805 108.694C16.9414 108.694 16.6108 108.511 16.189 108.146C15.7108 107.696 15.4717 107.4 15.4717 107.26C15.4717 107.091 15.5845 107.006 15.8095 107.006ZM30.7858 94.2871C31.1095 94.2871 31.5805 94.4488 32.1991 94.7722C32.4523 94.8988 32.5789 95.0746 32.5789 95.2996C32.5789 95.3557 32.5366 95.4682 32.4523 95.6371C31.9741 96.1012 31.6297 96.4948 31.4188 96.8182C30.4204 98.1823 29.9212 98.9065 29.9212 98.9911C29.9212 99.0472 29.9914 99.0964 30.1321 99.1387C30.9757 99.6028 31.6438 100.242 32.1358 101.058C32.5156 101.705 32.7055 102.492 32.7055 103.421C32.7055 103.955 32.5717 104.447 32.3047 104.897C32.0515 105.291 31.8337 105.488 31.6507 105.488L30.6805 103.315C31.0321 103.315 31.2079 103.125 31.2079 102.746C31.2079 102.324 31.0741 101.81 30.8071 101.206C30.4837 100.545 30.0547 99.9754 29.5204 99.4972C29.3797 99.3706 29.3095 99.2581 29.3095 99.1597C29.3095 99.0472 29.3446 98.9206 29.4148 98.7799C29.5273 98.5831 29.7382 97.9924 30.0475 97.0081C30.2866 96.3472 30.4063 95.9182 30.4063 95.7214C30.4063 95.5666 30.3148 95.4895 30.1321 95.4895C29.9491 95.4895 29.5975 95.5738 29.0773 95.7424C28.4866 95.9395 27.9805 96.0379 27.5587 96.0379C27.0946 96.0379 26.8624 95.9323 26.8624 95.7214C26.8624 95.6371 27.0031 95.5666 27.2845 95.5105C28.3531 95.2291 29.3587 94.8847 30.3007 94.477C30.5116 94.3504 30.6733 94.2871 30.7858 94.2871ZM28.6345 102.956C29.7172 103.196 30.3991 103.315 30.6805 103.315L31.6717 105.488C31.5031 105.488 31.3483 105.396 31.2079 105.214C30.8845 104.82 30.1108 104.194 28.8874 103.336C28.6345 103.21 28.5079 103.111 28.5079 103.041C28.5079 102.985 28.5499 102.956 28.6345 102.956ZM26.5462 95.0254C26.6866 95.0254 26.9821 95.1097 27.4321 95.2783C27.8539 95.4754 28.0648 95.6932 28.0648 95.9323C28.0648 95.9605 28.0225 96.1222 27.9382 96.4174C27.8257 96.9799 27.7624 97.5847 27.7483 98.2315C27.7483 98.2315 27.7204 100.868 27.664 106.142C27.6499 107.646 27.5515 108.961 27.3688 110.086C27.1999 110.789 27.0523 111.141 26.9257 111.141C26.7712 111.141 26.6515 110.888 26.5672 110.382C26.539 109.481 26.5249 108.3 26.5249 106.838C26.5249 106.838 26.5249 103.596 26.5249 97.1137C26.5249 96.523 26.4688 96.0379 26.3563 95.6581C26.2999 95.4754 26.2717 95.3629 26.2717 95.3206C26.2717 95.152 26.3632 95.0533 26.5462 95.0254Z" fill="white"/>
<path d="M70.8006 116.485C71.1522 116.485 71.4828 116.534 71.7921 116.632C72.1296 116.745 72.2982 116.878 72.2982 117.033C72.2982 117.075 72.2772 117.16 72.2349 117.286C72.1224 117.525 72.0663 117.968 72.0663 118.615C72.0522 121.821 72.0453 123.425 72.0453 123.425C72.0453 124.086 71.9961 124.627 71.8974 125.049C71.8413 125.738 71.7429 126.216 71.6022 126.483C71.4897 126.736 71.3913 126.863 71.307 126.863C71.2647 126.863 71.1945 126.729 71.0961 126.462C71.0256 126.153 70.9905 125.618 70.9905 124.859V118.404C70.9905 117.842 70.8921 117.371 70.6953 116.991C70.6107 116.85 70.5687 116.773 70.5687 116.759C70.5687 116.576 70.6461 116.485 70.8006 116.485ZM68.2062 118.341C68.3889 118.341 68.5857 118.376 68.7966 118.446C69.303 118.601 69.6828 118.763 69.9357 118.932C70.1607 119.142 70.2732 119.424 70.2732 119.775C70.2732 120.225 70.0905 120.45 69.7248 120.45C69.5982 120.45 69.4578 120.38 69.303 120.24C69.0357 120 68.649 119.487 68.1429 118.7C68.0724 118.615 68.0373 118.552 68.0373 118.51C68.0655 118.397 68.1216 118.341 68.2062 118.341ZM74.3655 117.244C74.5203 117.244 74.7873 117.392 75.1671 117.687C75.5046 117.954 75.6732 118.2 75.6732 118.425C75.6732 118.566 75.582 118.678 75.399 118.763C75.0756 118.89 74.7171 119.079 74.3232 119.332C73.5921 119.796 73.1562 120.028 73.0155 120.028C72.9453 120.028 72.9099 119.986 72.9099 119.902C72.9099 119.846 72.9312 119.811 72.9732 119.796C73.2546 119.473 73.4937 119.121 73.6905 118.742C73.8594 118.446 74.0349 118.011 74.2179 117.434C74.2599 117.307 74.3094 117.244 74.3655 117.244ZM67.953 121.041C68.1921 121.041 68.403 121.09 68.5857 121.189C68.8107 121.301 68.9232 121.449 68.9232 121.632C68.9232 121.674 68.9232 121.73 68.9232 121.8C68.8812 121.927 68.8599 122.159 68.8599 122.496C68.8179 123.987 68.7123 125.028 68.5437 125.618C68.4171 126.054 68.3046 126.272 68.2062 126.272C68.0937 126.272 67.9812 126.132 67.8687 125.85C67.6998 125.541 67.6155 125.253 67.6155 124.986C67.6155 124.929 67.6365 124.838 67.6788 124.711C67.7772 124.486 67.8474 124.205 67.8897 123.867C67.9599 123.615 67.9953 123.284 67.9953 122.876C67.9953 122.271 67.9248 121.836 67.7844 121.568C67.728 121.47 67.6998 121.371 67.6998 121.273C67.6998 121.118 67.7844 121.041 67.953 121.041ZM74.3445 120.366C74.4849 120.366 74.7453 120.492 75.1248 120.746C75.3498 120.915 75.4623 121.055 75.4623 121.167C75.4623 121.28 75.4062 121.442 75.2937 121.653C75.2094 121.864 75.1671 122.166 75.1671 122.56C75.1248 123.558 75.1038 124.057 75.1038 124.057C75.1038 124.859 74.9982 125.428 74.7873 125.766C74.4921 126.216 74.2389 126.441 74.028 126.441L73.6695 125.175C73.8522 125.175 73.9716 125.028 74.028 124.732C74.1405 124.212 74.1966 123.221 74.1966 121.758C74.1966 121.477 74.1615 121.287 74.0913 121.189C74.049 121.146 73.9716 121.125 73.8594 121.125C73.3389 121.125 72.5373 121.196 71.4546 121.336C70.4703 121.463 69.7671 121.582 69.3453 121.695C69.0216 121.793 68.7828 121.842 68.628 121.842C68.5155 121.842 68.403 121.8 68.2905 121.716C68.178 121.617 68.1216 121.519 68.1216 121.421C68.1216 121.378 68.2344 121.336 68.4594 121.294C71.4828 120.9 73.2828 120.619 73.8594 120.45C74.0982 120.394 74.2599 120.366 74.3445 120.366ZM72.678 124.922C72.7344 124.922 72.8466 124.965 73.0155 125.049C73.3671 125.133 73.5849 125.175 73.6695 125.175L74.028 126.441C73.8732 126.441 73.7607 126.378 73.6905 126.251C73.4094 125.829 73.1211 125.499 72.8256 125.26C72.6711 125.147 72.5937 125.056 72.5937 124.986C72.5937 124.943 72.6216 124.922 72.678 124.922ZM69.7461 122.391C69.8724 122.391 70.0482 122.461 70.2732 122.602C70.5264 122.757 70.653 122.897 70.653 123.024C70.653 123.052 70.6038 123.115 70.5054 123.214C70.3929 123.396 70.2804 123.579 70.1679 123.762C69.8445 124.24 69.5703 124.564 69.3453 124.732C69.2046 124.859 69.1062 124.922 69.0498 124.922C68.9796 124.908 68.9445 124.873 68.9445 124.817C69.1695 124.339 69.3453 123.938 69.4716 123.615C69.5421 123.347 69.5772 123.143 69.5772 123.003C69.5772 122.932 69.5562 122.806 69.5139 122.623C69.5421 122.468 69.6195 122.391 69.7461 122.391ZM72.5937 122.222C72.7062 122.222 72.8328 122.25 72.9732 122.307C73.2828 122.433 73.5216 122.567 73.6905 122.707C73.8312 122.876 73.9014 123.108 73.9014 123.403C73.9014 123.853 73.7187 124.078 73.353 124.078C73.2828 124.078 73.2054 124.022 73.1211 123.91C72.9663 123.685 72.7554 123.235 72.4881 122.56C72.4461 122.49 72.4248 122.433 72.4248 122.391C72.453 122.278 72.5094 122.222 72.5937 122.222ZM78.057 116.485C78.1554 116.485 78.3945 116.555 78.774 116.696C79.1538 116.85 79.3437 117.033 79.3437 117.244C79.3437 117.371 79.3014 117.483 79.2171 117.582C79.0203 117.778 78.8094 118.088 78.5844 118.51C78.1905 119.213 77.7756 119.811 77.3397 120.303C77.0445 120.668 76.7982 120.907 76.6014 121.02C76.4748 121.146 76.3764 121.21 76.3062 121.21C76.1796 121.21 76.1163 121.167 76.1163 121.083C76.4256 120.577 76.7139 120.028 76.9812 119.438C77.3328 118.707 77.5929 118.032 77.7615 117.413C77.8179 117.258 77.8461 116.991 77.8461 116.611C77.8461 116.527 77.9163 116.485 78.057 116.485ZM82.0014 118.847C82.0437 118.847 82.1982 118.882 82.4655 118.953C82.7466 119.093 82.8874 119.22 82.8874 119.332C82.8874 119.543 82.578 119.719 81.9594 119.86C81.0873 119.972 80.2087 120.099 79.3225 120.24C78.8724 120.31 78.4365 120.345 78.0147 120.345C77.7897 120.345 77.5647 120.324 77.3397 120.282C77.1006 120.225 76.9812 120.169 76.9812 120.113C76.9812 120.028 77.1216 119.958 77.403 119.902C79.4139 119.452 80.6374 119.171 81.0733 119.058C81.6358 118.917 81.9453 118.847 82.0014 118.847ZM79.7655 119.775C79.9203 119.775 80.1663 119.902 80.5038 120.155C80.8131 120.394 80.9679 120.598 80.9679 120.767C80.9679 120.893 80.9256 121.013 80.8413 121.125C80.7429 121.28 80.6655 121.491 80.6094 121.758C80.2857 122.686 79.8711 123.46 79.3647 124.078C78.8586 124.697 78.3171 125.14 77.7405 125.407C77.178 125.703 76.5594 125.85 75.8844 125.85C75.7014 125.85 75.5328 125.829 75.378 125.787C75.2655 125.745 75.2094 125.71 75.2094 125.682C75.2094 125.625 75.2937 125.576 75.4623 125.534C76.2216 125.337 76.9179 124.986 77.5506 124.479C78.282 123.889 78.8304 123.171 79.1961 122.328C79.4631 121.709 79.5967 121.104 79.5967 120.514C79.5967 120.443 79.5897 120.359 79.5756 120.261C79.5336 120.148 79.5123 120.064 79.5123 120.007C79.5123 119.853 79.5966 119.775 79.7655 119.775ZM77.6349 121.864C77.9304 121.864 78.2538 122.011 78.6054 122.307C80.1381 123.488 81.1086 124.184 81.5163 124.395C82.1211 124.761 82.9366 125.119 83.9632 125.471C84.5398 125.64 84.8281 125.787 84.8281 125.914C84.8281 125.984 84.7225 126.068 84.5116 126.167C83.668 126.406 82.993 126.525 82.4866 126.525C82.135 126.525 81.868 126.448 81.685 126.293C81.3616 126.054 80.9607 125.689 80.4828 125.196C80.4828 125.196 79.857 124.55 78.6054 123.256C78.1974 122.82 77.6913 122.525 77.0865 122.37C76.8474 122.314 76.728 122.236 76.728 122.138C76.728 121.955 77.0304 121.864 77.6349 121.864ZM71.2437 127.96C71.5389 127.96 71.8062 128.016 72.0453 128.128C72.3264 128.269 72.4671 128.459 72.4671 128.698C72.4671 128.74 72.4671 128.796 72.4671 128.867C72.4107 129.007 72.3828 129.246 72.3828 129.584C72.3405 131.117 72.2139 132.178 72.003 132.769C71.8482 133.219 71.7078 133.444 71.5812 133.444C71.4405 133.444 71.2998 133.268 71.1594 132.917C70.9482 132.509 70.8429 132.136 70.8429 131.799C70.8429 131.757 70.8639 131.693 70.9062 131.609C71.0328 131.44 71.1171 131.236 71.1594 130.997C71.2437 130.815 71.2857 130.575 71.2857 130.28C71.2857 129.521 71.1945 128.972 71.0115 128.635C70.9413 128.494 70.9062 128.367 70.9062 128.255C70.9062 128.058 71.0187 127.96 71.2437 127.96ZM78.774 127.116C78.9711 127.116 79.3224 127.285 79.8288 127.622C80.124 127.847 80.2717 128.03 80.2717 128.171C80.2717 128.283 80.2086 128.459 80.082 128.698C79.9695 128.937 79.9131 129.275 79.9131 129.711C79.8711 130.836 79.8498 131.398 79.8498 131.398C79.8498 132.27 79.7232 132.896 79.4703 133.275C79.1328 133.782 78.8373 134.035 78.5844 134.035L78.099 132.347C78.2679 132.347 78.3732 132.2 78.4155 131.904C78.528 131.398 78.5844 130.428 78.5844 128.993C78.5844 128.6 78.5421 128.34 78.4578 128.213C78.4014 128.157 78.2961 128.128 78.1413 128.128C77.5506 128.128 76.6224 128.199 75.357 128.34C74.2179 128.466 73.4094 128.586 72.9312 128.698C72.5514 128.796 72.2703 128.846 72.0873 128.846C71.9466 128.846 71.7921 128.79 71.6232 128.677C71.4828 128.536 71.4123 128.403 71.4123 128.276C71.4123 128.234 71.5389 128.192 71.7921 128.15C75.378 127.714 77.5086 127.404 78.1836 127.221C78.4788 127.151 78.6756 127.116 78.774 127.116ZM76.9812 132.094C77.0514 132.094 77.178 132.136 77.3607 132.221C77.7687 132.305 78.0147 132.347 78.099 132.347L78.5844 134.035C78.4014 134.035 78.2679 133.95 78.1836 133.782C77.8461 133.247 77.5014 132.832 77.1498 132.537C76.9671 132.396 76.8756 132.277 76.8756 132.178C76.8756 132.122 76.9107 132.094 76.9812 132.094ZM74.724 126.357C74.8647 126.357 75.1599 126.441 75.6099 126.61C76.032 126.807 76.2429 127.025 76.2429 127.264C76.2429 127.278 76.2006 127.369 76.1163 127.538C76.0038 127.861 75.9405 128.206 75.9264 128.571C75.9264 128.571 75.8982 130.076 75.8421 133.086C75.828 133.943 75.7296 134.696 75.5466 135.342C75.378 136.046 75.2304 136.397 75.1038 136.397C74.949 136.397 74.8296 136.144 74.7453 135.638C74.7171 135.16 74.703 134.52 74.703 133.718C74.703 133.718 74.703 131.961 74.703 128.445C74.703 127.854 74.6466 127.369 74.5344 126.99C74.478 126.807 74.4498 126.694 74.4498 126.652C74.4498 126.483 74.5413 126.385 74.724 126.357Z" fill="white"/>
<path d="M117.425 91.6689C117.678 91.6689 117.959 91.704 118.269 91.7745C119 91.929 119.548 92.0979 119.914 92.2806C120.237 92.5056 120.399 92.8011 120.399 93.1665C120.399 93.7995 120.139 94.116 119.619 94.116C119.436 94.116 119.239 94.0386 119.028 93.8838C118.62 93.6027 118.058 93.012 117.34 92.112C117.242 92.0136 117.193 91.9431 117.193 91.9011C117.221 91.7463 117.298 91.6689 117.425 91.6689ZM119.914 95.6346C120.069 95.6346 120.378 95.754 120.842 95.9931C121.32 96.2886 121.559 96.5346 121.559 96.7314C121.559 96.8862 121.384 97.1112 121.032 97.4064C120.638 97.7298 120.265 98.1378 119.914 98.6298C118.705 100.374 117.713 101.639 116.94 102.427C116.236 103.144 115.47 103.756 114.64 104.262C113.937 104.698 113.459 104.916 113.206 104.916C113.094 104.916 113.037 104.888 113.037 104.831C114.106 103.988 115.062 103.046 115.906 102.005C116.525 101.344 117.481 100.043 118.775 98.1027C119.239 97.4415 119.471 97.0761 119.471 97.0056C119.471 96.9213 119.408 96.879 119.281 96.879C119.14 96.879 118.951 96.9213 118.711 97.0056C117.657 97.3713 116.665 97.6878 115.737 97.9548C115.372 98.0814 115.14 98.1447 115.041 98.1447C114.844 98.1447 114.57 98.0605 114.219 97.8915C113.825 97.6806 113.628 97.4979 113.628 97.3431C113.628 97.2165 113.783 97.1394 114.092 97.1112C115.301 97.0128 116.37 96.8298 117.298 96.5628C118.001 96.4221 118.705 96.1761 119.408 95.8245C119.633 95.6979 119.801 95.6346 119.914 95.6346ZM118.395 99.6003C118.494 99.6003 118.711 99.7902 119.049 100.17C119.429 100.662 119.619 100.992 119.619 101.161C119.619 101.231 119.584 101.407 119.513 101.689C119.415 102.082 119.365 103.053 119.365 104.6L119.281 107.11C119.281 107.405 119.197 107.792 119.028 108.27C118.915 108.621 118.796 108.797 118.669 108.797C118.472 108.797 118.304 108.6 118.163 108.206C117.896 107.602 117.762 107.18 117.762 106.941C117.79 106.842 117.868 106.625 117.994 106.287C118.29 105.612 118.437 104.185 118.437 102.005C118.437 101.274 118.318 100.55 118.079 99.8322C118.079 99.6777 118.184 99.6003 118.395 99.6003ZM119.281 100.528C119.492 100.528 119.717 100.571 119.956 100.655C120.547 100.824 120.99 101.006 121.285 101.203C121.552 101.428 121.686 101.738 121.686 102.131C121.686 102.581 121.503 102.806 121.137 102.806C120.983 102.806 120.814 102.729 120.631 102.575C120.308 102.321 119.844 101.759 119.239 100.887C119.155 100.803 119.112 100.739 119.112 100.697C119.14 100.585 119.197 100.528 119.281 100.528ZM128.984 98.3979C129.251 98.3979 129.589 98.5032 129.997 98.7144C130.278 98.841 130.419 98.9956 130.419 99.1783C130.419 99.2911 130.257 99.3822 129.934 99.4527C129.568 99.5652 128.752 99.7128 127.486 99.8955C125.574 100.149 124.322 100.275 123.732 100.275C123.113 100.275 122.677 100.205 122.424 100.064C122.185 99.8955 122.065 99.7479 122.065 99.6213C122.065 99.5229 122.297 99.4665 122.761 99.4527C123.859 99.354 125.061 99.1924 126.369 98.9674C127.283 98.8129 128.021 98.6581 128.584 98.5033C128.78 98.4331 128.914 98.3979 128.984 98.3979ZM125.23 92.5971C125.623 92.5971 126.101 92.7447 126.664 93.0402C127.1 93.237 127.318 93.504 127.318 93.8415C127.318 93.8838 127.24 94.0455 127.086 94.3269C127.001 94.4955 126.882 95.3112 126.727 96.7737L126.643 105.169H125.398L125.356 96.5205C125.356 95.8596 125.3 95.1423 125.187 94.3689C125.159 94.0032 125.068 93.7011 124.913 93.462C124.772 93.279 124.702 93.1596 124.702 93.1032C124.702 92.766 124.878 92.5971 125.23 92.5971ZM131.22 103.946C131.319 103.946 131.684 104.065 132.317 104.304C132.851 104.585 133.119 104.846 133.119 105.085C133.119 105.296 132.746 105.401 132.001 105.401C131.241 105.373 130.426 105.359 129.554 105.359C128.64 105.359 127.444 105.415 125.968 105.528C124.913 105.584 123.788 105.753 122.593 106.034C122.255 106.118 122.044 106.16 121.96 106.16C121.721 106.16 121.362 106.055 120.884 105.844C120.378 105.633 120.125 105.457 120.125 105.317C120.125 105.148 120.286 105.05 120.61 105.021C121.96 105.007 122.951 104.937 123.584 104.81C124.78 104.656 126.094 104.536 127.529 104.452C128.879 104.325 129.919 104.185 130.651 104.03C130.946 103.974 131.136 103.946 131.22 103.946Z" fill="white"/>
<path d="M101.956 36.3473C102.425 36.3473 102.884 36.488 103.334 36.7691C103.859 37.1066 104.131 37.4441 104.15 37.7816C104.112 37.9316 104.037 38.1284 103.925 38.3723C103.681 38.9912 103.541 40.6973 103.503 43.4912C103.503 43.8284 103.587 43.9973 103.756 43.9973C103.944 43.9973 105.012 43.5566 106.962 42.6755C107.281 42.563 107.469 42.5066 107.525 42.5066C107.619 42.5066 107.666 42.5534 107.666 42.6473C107.666 42.7973 107.525 43.0034 107.244 43.2662C105.162 45.0848 103.822 46.3034 103.222 46.9223C102.884 47.2973 102.594 47.4848 102.35 47.4848C102.031 47.4848 101.769 47.3066 101.562 46.9505C101.281 46.388 101.141 45.938 101.141 45.6005C101.141 45.4505 101.262 45.2723 101.506 45.0662C101.656 44.8784 101.769 44.4941 101.844 43.913C102.012 43.0505 102.097 41.6348 102.097 39.6662C102.078 38.7098 101.937 37.9784 101.675 37.4723C101.506 37.2098 101.412 36.9755 101.394 36.7691C101.394 36.488 101.581 36.3473 101.956 36.3473ZM106.597 30.8348C106.822 30.8348 107.281 31.0412 107.975 31.4534C108.5 31.7723 108.762 32.1005 108.762 32.438C108.762 32.5316 108.725 32.6723 108.65 32.8598C108.519 33.3473 108.406 34.2191 108.312 35.4755C108.087 38.5691 107.975 40.838 107.975 42.2816C107.975 42.2816 107.956 45.188 107.919 51.0005C107.919 51.4505 107.787 51.938 107.525 52.463C107.319 52.8941 107.103 53.1098 106.878 53.1098C106.766 53.1098 106.587 52.8755 106.344 52.4066C106.006 51.638 105.837 51.0662 105.837 50.6912C105.837 50.4098 105.894 50.0162 106.006 49.5098C106.175 48.8912 106.334 47.7191 106.484 45.9941C106.728 43.5755 106.85 40.6412 106.85 37.1912C106.85 35.2034 106.784 33.863 106.653 33.1691C106.578 32.5691 106.466 32.1191 106.316 31.8191C106.241 31.6316 106.175 31.463 106.119 31.313C106.119 30.9941 106.278 30.8348 106.597 30.8348ZM113.825 30.1598C114.05 30.1598 114.341 30.263 114.697 30.4691C115.447 30.9566 115.822 31.3784 115.822 31.7348C115.822 31.8848 115.728 32.0723 115.541 32.2973C115.391 32.6162 115.222 33.0098 115.034 33.4784C114.228 35.6534 113.412 37.4534 112.587 38.8784C111.931 40.0412 111.191 41.0441 110.366 41.888C109.803 42.4691 109.428 42.7598 109.241 42.7598C109.109 42.7598 109.044 42.7316 109.044 42.6755C109.044 42.5816 109.109 42.4598 109.241 42.3098C109.934 41.2223 110.619 39.9191 111.294 38.4005C111.912 37.0316 112.484 35.4662 113.009 33.7034C113.328 32.6348 113.487 31.6316 113.487 30.6941C113.487 30.338 113.6 30.1598 113.825 30.1598ZM120.209 35.6162C120.378 35.6162 120.856 35.7566 121.644 36.038C122.15 36.3191 122.403 36.5441 122.403 36.713C122.403 36.9191 122.234 37.0505 121.897 37.1066C120.359 37.2566 118.362 37.6598 115.906 38.3162C114.687 38.6348 114.031 38.7941 113.937 38.7941C113.637 38.7941 113.309 38.7566 112.953 38.6816C112.353 38.5316 112.053 38.3441 112.053 38.1191C112.053 38.0066 112.156 37.9412 112.362 37.9223C113.975 37.6223 116.159 36.9848 118.916 36.0098C119.666 35.7473 120.097 35.6162 120.209 35.6162ZM115.878 37.4723C116.291 37.4723 116.769 37.7162 117.312 38.2034C117.744 38.5784 117.959 38.9441 117.959 39.3005C117.959 39.4505 117.894 39.6755 117.762 39.9755C117.594 40.6505 117.453 41.288 117.341 41.888C117.116 43.8005 116.675 45.338 116.019 46.5005C115.287 47.9441 114.256 49.0034 112.925 49.6784C111.819 50.3162 110.628 50.6348 109.353 50.6348C108.978 50.6348 108.791 50.588 108.791 50.4941C108.791 50.3441 108.997 50.2316 109.409 50.1566C110.834 49.6316 111.987 48.9098 112.869 47.9912C113.937 46.8662 114.706 45.5534 115.175 44.0534C115.531 42.8162 115.709 41.2784 115.709 39.4412C115.709 39.0662 115.672 38.7284 115.597 38.4284C115.466 38.1662 115.4 37.9598 115.4 37.8098C115.4 37.5848 115.559 37.4723 115.878 37.4723ZM111.8 42.7316C112.137 42.7316 112.466 42.8348 112.784 43.0412C113.216 43.3223 113.9 43.9973 114.837 45.0662C115.944 46.2662 117.069 47.1941 118.212 47.8505C119.6 48.863 121.906 49.7348 125.131 50.4662C125.487 50.5598 125.666 50.6912 125.666 50.8598C125.666 50.9912 125.497 51.113 125.159 51.2255C123.397 51.8066 121.944 52.0973 120.8 52.0973C120.2 52.0973 119.694 51.9473 119.281 51.6473C118.606 51.2534 116.619 49.0505 113.319 45.038C112.85 44.4941 112.344 44.063 111.8 43.7441C111.369 43.5566 111.153 43.3412 111.153 43.0973C111.153 42.8534 111.369 42.7316 111.8 42.7316Z" fill="white"/>
</g>
<defs>
<filter id="filter0_i_14:14" x="0.378052" y="0.234741" width="152" height="157" filterUnits="userSpaceOnUse" color-interpolation-filters="sRGB">
<feFlood flood-opacity="0" result="BackgroundImageFix"/>
<feBlend mode="normal" in="SourceGraphic" in2="BackgroundImageFix" result="shape"/>
<feColorMatrix in="SourceAlpha" type="matrix" values="0 0 0 0 0 0 0 0 0 0 0 0 0 0 0 0 0 0 127 0" result="hardAlpha"/>
<feOffset dx="2" dy="7"/>
<feGaussianBlur stdDeviation="39"/>
<feComposite in2="hardAlpha" operator="arithmetic" k2="-1" k3="1"/>
<feColorMatrix type="matrix" values="0 0 0 0 0 0 0 0 0 0 0 0 0 0 0 0 0 0 0.25 0"/>
<feBlend mode="normal" in2="shape" result="effect1_innerShadow_14:14"/>
</filter>
</defs>
</svg>
